<?xml version="1.0" encoding="UTF-8"?>
<svg id="BASE" xmlns="http://www.w3.org/2000/svg" version="1.1" viewBox="0 0 808.12 67.34">
  <!-- Generator: Adobe Illustrator 30.0.0, SVG Export Plug-In . SVG Version: 2.1.1 Build 123)  -->
  <defs>
    <style>
      .st0 {
        fill: #066;
      }

      .st1 {
        fill: #fed;
      }
    </style>
  </defs>
  <g>
    <g>
      <rect class="st1" x="0" y="0" width="67.34" height="67.34"/>
      <polygon class="st0" points="67.34 0 0 0 0 67.34 67.34 0"/>
    </g>
    <g>
      <rect class="st1" x="67.34" y="0" width="67.34" height="67.34"/>
      <polygon class="st0" points="134.69 0 67.34 0 67.34 67.34 134.69 0"/>
    </g>
    <g>
      <rect class="st1" x="134.69" y="0" width="67.34" height="67.34"/>
      <polygon class="st0" points="202.03 0 134.69 0 134.69 67.34 202.03 0"/>
    </g>
    <g>
      <rect class="st1" x="202.03" y="0" width="67.34" height="67.34"/>
      <polygon class="st0" points="269.37 0 202.03 0 202.03 67.34 269.37 0"/>
    </g>
    <g>
      <rect class="st1" x="269.37" y="0" width="67.34" height="67.34"/>
      <polygon class="st0" points="336.72 0 269.37 0 269.37 67.34 336.72 0"/>
    </g>
    <g>
      <rect class="st1" x="336.72" y="0" width="67.34" height="67.34"/>
      <polygon class="st0" points="404.06 0 336.72 0 336.72 67.34 404.06 0"/>
    </g>
  </g>
  <g>
    <g>
      <rect class="st1" x="404.06" y="0" width="67.34" height="67.34"/>
      <polygon class="st0" points="471.41 0 404.06 0 404.06 67.34 471.41 0"/>
    </g>
    <g>
      <rect class="st1" x="471.41" y="0" width="67.34" height="67.34"/>
      <polygon class="st0" points="538.75 0 471.41 0 471.41 67.34 538.75 0"/>
    </g>
    <g>
      <rect class="st1" x="538.75" y="0" width="67.34" height="67.34"/>
      <polygon class="st0" points="606.09 0 538.75 0 538.75 67.34 606.09 0"/>
    </g>
    <g>
      <rect class="st1" x="606.09" y="0" width="67.34" height="67.34"/>
      <polygon class="st0" points="673.44 0 606.09 0 606.09 67.34 673.44 0"/>
    </g>
    <g>
      <rect class="st1" x="673.44" y="0" width="67.34" height="67.34"/>
      <polygon class="st0" points="740.78 0 673.44 0 673.44 67.34 740.78 0"/>
    </g>
    <g>
      <rect class="st1" x="740.78" y="0" width="67.34" height="67.34"/>
      <polygon class="st0" points="808.12 0 740.78 0 740.78 67.34 808.12 0"/>
    </g>
  </g>
</svg>