<?xml version="1.0" encoding="UTF-8"?>
<svg xmlns="http://www.w3.org/2000/svg" version="1.1" viewBox="0 0 480.13 210.19">
  <!-- Generator: Adobe Illustrator 30.0.0, SVG Export Plug-In . SVG Version: 2.1.1 Build 123)  -->
  <defs>
    <style>
      .st0 {
        fill: #066;
      }

      .st1 {
        fill: none;
        stroke: #000;
        stroke-miterlimit: 8;
        stroke-width: 4px;
      }

      .st2 {
        display: none;
      }

      .st3 {
        fill: #fed;
      }
    </style>
  </defs>
  <g id="BASE">
    <g>
      <g>
        <rect class="st3" x="3.72" y="4" width="67.34" height="67.34"/>
        <polygon class="st0" points="71.07 71.34 3.72 71.34 3.72 4 71.07 71.34"/>
      </g>
      <g>
        <rect class="st3" x="71.07" y="4" width="67.34" height="67.34"/>
        <polygon class="st0" points="138.41 71.34 71.07 71.34 71.07 4 138.41 71.34"/>
      </g>
      <g>
        <rect class="st3" x="138.41" y="4" width="67.34" height="67.34"/>
        <polygon class="st0" points="205.76 71.34 138.41 71.34 138.41 4 205.76 71.34"/>
      </g>
      <g>
        <rect class="st3" x="205.76" y="4" width="67.34" height="67.34"/>
        <polygon class="st0" points="273.1 71.34 205.76 71.34 205.76 4 273.1 71.34"/>
      </g>
      <g>
        <rect class="st3" x="273.1" y="4" width="67.34" height="67.34"/>
        <polygon class="st0" points="340.44 71.34 273.1 71.34 273.1 4 340.44 71.34"/>
      </g>
      <g>
        <rect class="st3" x="340.44" y="4" width="67.34" height="67.34"/>
        <polygon class="st0" points="407.79 71.34 340.44 71.34 340.44 4 407.79 71.34"/>
      </g>
      <g>
        <rect class="st3" x="408.78" y="4" width="67.34" height="67.34"/>
        <polygon class="st0" points="476.13 71.34 408.78 71.34 408.78 4 476.13 71.34"/>
      </g>
    </g>
    <g>
      <rect class="st3" x="3.72" y="138.85" width="67.34" height="67.34"/>
      <polygon class="st0" points="71.07 138.85 3.72 138.85 3.72 206.19 71.07 138.85"/>
      <rect class="st3" x="71.07" y="138.85" width="67.34" height="67.34"/>
      <polygon class="st0" points="138.41 138.85 71.07 138.85 71.07 206.19 138.41 138.85"/>
      <rect class="st3" x="138.41" y="138.85" width="67.34" height="67.34"/>
      <polygon class="st0" points="205.76 138.85 138.41 138.85 138.41 206.19 205.76 138.85"/>
      <rect class="st3" x="205.76" y="138.85" width="67.34" height="67.34"/>
      <polygon class="st0" points="273.1 138.85 205.76 138.85 205.76 206.19 273.1 138.85"/>
      <rect class="st3" x="273.1" y="138.85" width="67.34" height="67.34"/>
      <polygon class="st0" points="340.44 138.85 273.1 138.85 273.1 206.19 340.44 138.85"/>
      <rect class="st3" x="340.44" y="138.85" width="67.34" height="67.34"/>
      <polygon class="st0" points="407.79 138.85 340.44 138.85 340.44 206.19 407.79 138.85"/>
      <rect class="st3" x="407.79" y="138.85" width="67.34" height="67.34"/>
      <polygon class="st0" points="475.13 138.85 407.79 138.85 407.79 206.19 475.13 138.85"/>
    </g>
    <path d="M476.13,4v202.19H4V4h472.13M480.13,0H0v210.19h480.13V0h0Z"/>
    <line class="st1" x1="2.99" y1="73.1" x2="477.14" y2="73.1"/>
    <line class="st1" x1="2.99" y1="136.73" x2="477.14" y2="136.73"/>
  </g>
  <g id="TEXT">
    <g>
      <path d="M112.12,97.28v3.95c0,5.41-4.16,9.83-9.46,10.3l8.01,11.8h-5.93l-7.96-11.75h-31.77v11.75h-4.94v-36.4h41.71c5.72.05,10.35,4.68,10.35,10.35ZM107.23,97.28c0-2.96-2.44-5.41-5.46-5.41h-36.77v14.77h36.77c3.02,0,5.46-2.5,5.46-5.41v-3.95Z"/>
      <path d="M153.62,105.08v18.25h-27.98c-4.63,0-8.32-3.74-8.32-8.37s3.69-8.37,8.32-8.37h23.04v-1.51c0-2.96-2.39-5.41-5.36-5.41h-26v-4.89h26c5.72,0,10.3,4.63,10.3,10.3ZM148.68,111.53h-23.04c-1.92,0-3.43,1.56-3.43,3.43s1.51,3.43,3.43,3.43h23.04v-6.86Z"/>
      <path d="M195.16,105.08v7.9c0,5.72-4.63,10.35-10.3,10.35h-26.05v-36.4h4.89v7.85h21.16c5.67,0,10.3,4.63,10.3,10.3ZM190.28,105.08c0-2.96-2.44-5.41-5.41-5.41h-21.16v18.72h21.16c2.96,0,5.41-2.44,5.41-5.41v-7.9Z"/>
      <path d="M231.77,86.93h4.94v36.4h-26.05c-5.67,0-10.3-4.63-10.3-10.35v-7.9c0-5.67,4.63-10.3,10.3-10.3h21.11v-7.85ZM231.77,99.67h-21.11c-2.96,0-5.41,2.44-5.41,5.41v7.9c0,2.96,2.44,5.41,5.41,5.41h21.11v-18.72Z"/>
      <path d="M278.26,105.08l-.05,7.9c-.05,5.67-4.58,10.35-10.24,10.35h-15.76c-5.67,0-10.3-4.68-10.3-10.35v-7.9c0-5.67,4.63-10.3,10.3-10.3h15.76c5.67,0,10.24,4.63,10.3,10.3ZM273.32,105.08c0-2.96-2.39-5.41-5.36-5.41h-15.76c-2.96,0-5.36,2.44-5.36,5.41v7.9c0,2.96,2.39,5.41,5.36,5.41h15.76c2.96,0,5.36-2.44,5.36-5.41v-7.9Z"/>
      <path d="M319.76,114.96c0,4.63-3.69,8.37-8.32,8.37h-27.98v-4.94h27.98c1.92,0,3.43-1.51,3.43-3.43s-1.51-3.43-3.43-3.43h-19.66c-4.58,0-8.32-3.74-8.32-8.42s3.74-8.32,8.32-8.32h27.98v4.89h-27.98c-1.87,0-3.38,1.56-3.38,3.43s1.51,3.48,3.38,3.48h19.66c4.63,0,8.32,3.74,8.32,8.37Z"/>
      <path d="M387.82,90.05l19.92,33.28h-5.72l-7.07-11.75h-28.6l-7.07,11.75h-5.72l19.97-33.28c1.09-1.87,3.17-3.12,5.46-3.12h3.38c2.34.05,4.32,1.25,5.46,3.12ZM392.03,106.64l-8.42-14.04c-.21-.47-.73-.73-1.25-.73h-3.38c-.52,0-.99.26-1.25.73l-8.48,14.04h22.78Z"/>
      <path d="M410.34,86.93h4.94v36.4h-4.94v-36.4Z"/>
    </g>
    <g class="st2">
      <path d="M85.89,93.78h26.05v4.89h-26.05c-3.02,0-5.41,2.44-5.41,5.41v18.25h-4.89v-18.25c0-5.67,4.58-10.3,10.3-10.3Z"/>
      <path d="M153.44,104.08v18.25h-27.98c-4.63,0-8.32-3.74-8.32-8.37s3.69-8.37,8.32-8.37h23.04v-1.51c0-2.96-2.39-5.41-5.36-5.41h-26v-4.89h26c5.72,0,10.3,4.63,10.3,10.3ZM148.5,110.53h-23.04c-1.92,0-3.43,1.56-3.43,3.43s1.51,3.43,3.43,3.43h23.04v-6.86Z"/>
      <path d="M194.98,104.08v7.9c0,5.72-4.63,10.35-10.3,10.35h-26.05v-36.4h4.89v7.85h21.16c5.67,0,10.3,4.63,10.3,10.3ZM190.09,104.08c0-2.96-2.44-5.41-5.41-5.41h-21.16v18.72h21.16c2.96,0,5.41-2.44,5.41-5.41v-7.9Z"/>
      <path d="M231.59,85.93h4.94v36.4h-26.05c-5.67,0-10.3-4.63-10.3-10.35v-7.9c0-5.67,4.63-10.3,10.3-10.3h21.11v-7.85ZM231.59,98.67h-21.11c-2.96,0-5.41,2.44-5.41,5.41v7.9c0,2.96,2.44,5.41,5.41,5.41h21.11v-18.72Z"/>
      <path d="M278.08,104.08l-.05,7.9c-.05,5.67-4.58,10.35-10.24,10.35h-15.76c-5.67,0-10.3-4.68-10.3-10.35v-7.9c0-5.67,4.63-10.3,10.3-10.3h15.76c5.67,0,10.24,4.63,10.3,10.3ZM273.14,104.08c0-2.96-2.39-5.41-5.36-5.41h-15.76c-2.96,0-5.36,2.44-5.36,5.41v7.9c0,2.96,2.39,5.41,5.36,5.41h15.76c2.96,0,5.36-2.44,5.36-5.41v-7.9Z"/>
      <path d="M319.57,113.96c0,4.63-3.69,8.37-8.32,8.37h-27.98v-4.94h27.98c1.92,0,3.43-1.51,3.43-3.43s-1.51-3.43-3.43-3.43h-19.66c-4.58,0-8.32-3.74-8.32-8.42s3.74-8.32,8.32-8.32h27.98v4.89h-27.98c-1.87,0-3.38,1.56-3.38,3.43s1.51,3.48,3.38,3.48h19.66c4.63,0,8.32,3.74,8.32,8.37Z"/>
      <path d="M389.67,104.08v18.25h-27.98c-4.63,0-8.32-3.74-8.32-8.37s3.69-8.37,8.32-8.37h23.04v-1.51c0-2.96-2.39-5.41-5.36-5.41h-26v-4.89h26c5.72,0,10.3,4.63,10.3,10.3ZM384.73,110.53h-23.04c-1.92,0-3.43,1.56-3.43,3.43s1.51,3.43,3.43,3.43h23.04v-6.86Z"/>
      <path d="M394.87,93.78h4.89v28.55h-4.89v-28.55Z"/>
    </g>
  </g>
</svg>